<svg xmlns="http://www.w3.org/2000/svg" viewBox="0 0 320 200" role="img" aria-label="Des cartes retournées, un nombre et un calcul réunis en paire">
  <rect width="320" height="200" fill="#fbf5e4"/>
  <rect x="14" y="28" width="64" height="72" rx="12" fill="#f4dfa8" stroke="#8a6a18" stroke-width="6"/>
  <rect x="92" y="28" width="64" height="72" rx="12" fill="#fff" stroke="#8a6a18" stroke-width="6"/>
  <circle cx="112" cy="54" r="7" fill="#8a6a18"/>
  <circle cx="136" cy="54" r="7" fill="#8a6a18"/>
  <circle cx="124" cy="76" r="7" fill="#8a6a18"/>
  <rect x="170" y="28" width="64" height="72" rx="12" fill="#fff" stroke="#8a6a18" stroke-width="6"/>
  <path d="M202 48v32M186 64h32" stroke="#8a6a18" stroke-width="7" stroke-linecap="round"/>
  <rect x="248" y="28" width="64" height="72" rx="12" fill="#f4dfa8" stroke="#8a6a18" stroke-width="6"/>
  <rect x="82" y="18" width="162" height="92" rx="18" fill="none" stroke="#8a6a18" stroke-width="6" stroke-dasharray="14 12"/>
  <rect x="14" y="126" width="64" height="64" rx="12" fill="#f4dfa8" stroke="#8a6a18" stroke-width="6"/>
  <rect x="92" y="126" width="64" height="64" rx="12" fill="#f4dfa8" stroke="#8a6a18" stroke-width="6"/>
  <rect x="170" y="126" width="64" height="64" rx="12" fill="#f4dfa8" stroke="#8a6a18" stroke-width="6"/>
  <rect x="248" y="126" width="64" height="64" rx="12" fill="#f4dfa8" stroke="#8a6a18" stroke-width="6"/>
</svg>
